<svg width="46" height="46" viewBox="0 0 46 46" fill="none" xmlns="http://www.w3.org/2000/svg">
<path d="M18.051 12.5443C20.7833 10.1527 25.2167 10.1527 27.949 12.5443C30.6837 14.936 30.6837 18.814 27.949 21.2057C27.4753 21.6233 26.9457 21.9663 26.3857 22.237C24.6473 23.0793 23.0023 24.568 23.0023 26.5V28.25M44 23C44 25.7578 43.4568 28.4885 42.4015 31.0364C41.3461 33.5842 39.7993 35.8992 37.8492 37.8492C35.8992 39.7993 33.5842 41.3461 31.0364 42.4015C28.4885 43.4568 25.7578 44 23 44C20.2422 44 17.5115 43.4568 14.9636 42.4015C12.4158 41.3461 10.1008 39.7993 8.15076 37.8492C6.20073 35.8992 4.65388 33.5842 3.59853 31.0364C2.54318 28.4885 2 25.7578 2 23C2 17.4305 4.21249 12.089 8.15076 8.15076C12.089 4.21249 17.4305 2 23 2C28.5695 2 33.911 4.21249 37.8492 8.15076C41.7875 12.089 44 17.4305 44 23ZM23 35.25H23.0187V35.2687H23V35.25Z" stroke="white" stroke-width="3" stroke-linecap="round" stroke-linejoin="round"/>
</svg>
